<svg width="217" height="65" viewBox="0 0 217 65" fill="none" xmlns="http://www.w3.org/2000/svg">
  <path d="M46 41H20L25 46H41L46 41Z" fill="#707EC2" fill-opacity="0.5" />
  <path d="M40 47H26L31 52H35L40 47Z" fill="#707EC2" fill-opacity="0.5" />
  <path d="M20 35V40H47L52 35H20Z" fill="#707EC2" fill-opacity="0.5" />
  <mask id="path-4-inside-1_138_2112" fill="white">
    <path
      d="M20 23C20 21.3431 21.3431 20 23 20H37C38.6569 20 40 21.3431 40 23V37C40 38.6569 38.6569 40 37 40H20V23Z" />
  </mask>
  <path
    d="M20 23C20 21.3431 21.3431 20 23 20H37C38.6569 20 40 21.3431 40 23V37C40 38.6569 38.6569 40 37 40H20V23Z"
    stroke="#707EC2" stroke-width="10" mask="url(#path-4-inside-1_138_2112)" />
  <path
    d="M73.4151 41.072C73.4151 41.6267 73.6925 41.904 74.2471 41.904C74.8231 41.904 75.3031 41.7973 75.6871 41.584L75.5271 45.2C74.5031 46.032 73.3511 46.448 72.0711 46.448C69.7245 46.448 68.4231 45.5947 68.1671 43.888C67.1005 45.5947 65.5325 46.448 63.4631 46.448C59.9645 46.448 58.2151 44.944 58.2151 41.936C58.2151 41.424 58.2685 40.8587 58.3751 40.24L59.0471 36.496C59.3885 34.576 60.1671 33.0507 61.3831 31.92C62.6205 30.768 64.3271 30.192 66.5031 30.192C67.8471 30.192 68.9138 30.48 69.7031 31.056L71.3351 21.712H76.8071L73.4471 40.688C73.4258 40.816 73.4151 40.944 73.4151 41.072ZM63.9431 39.536C63.9005 39.728 63.8791 39.9947 63.8791 40.336C63.8791 40.6773 64.0391 41.0187 64.3591 41.36C64.6791 41.68 65.2125 41.84 65.9591 41.84C66.7271 41.84 67.3885 41.5413 67.9431 40.944L68.9031 35.568C68.6685 35.0347 68.1138 34.768 67.2391 34.768C65.5965 34.768 64.6365 35.5573 64.3591 37.136L63.9431 39.536ZM93.1651 41.072C93.1651 41.6267 93.4425 41.904 93.9971 41.904C94.5731 41.904 95.0531 41.7973 95.4371 41.584L95.2771 45.2C94.2531 46.032 93.1011 46.448 91.8211 46.448C89.4745 46.448 88.1731 45.5947 87.9171 43.888C86.8505 45.5947 85.2825 46.448 83.2131 46.448C79.7145 46.448 77.9651 44.944 77.9651 41.936C77.9651 41.424 78.0185 40.8587 78.1251 40.24L78.7971 36.496C79.1385 34.576 79.9171 33.0507 81.1331 31.92C82.3705 30.768 83.9705 30.192 85.9331 30.192C87.9171 30.192 89.2611 30.6507 89.9651 31.568L90.1251 30.608H94.9891L93.1971 40.688C93.1758 40.816 93.1651 40.944 93.1651 41.072ZM83.6931 39.536C83.6505 39.728 83.6291 39.9947 83.6291 40.336C83.6291 40.6773 83.7891 41.0187 84.1091 41.36C84.4291 41.68 84.9625 41.84 85.7091 41.84C86.4771 41.84 87.1385 41.5413 87.6931 40.944L88.6531 35.568C88.4185 35.0347 87.8638 34.768 86.9891 34.768C85.3465 34.768 84.3865 35.5573 84.1091 37.136L83.6931 39.536ZM103.519 39.12C103.455 39.504 103.423 39.888 103.423 40.272C103.423 41.296 103.999 41.808 105.151 41.808C106.09 41.808 106.868 41.4773 107.487 40.816L109.279 30.608H114.719L111.903 46.512C111.434 49.2213 110.356 51.3653 108.671 52.944C107.007 54.5227 105.098 55.312 102.943 55.312C100.788 55.312 99.2311 54.9173 98.2711 54.128C97.3325 53.3387 96.8631 52.304 96.8631 51.024C96.8631 49.2107 97.9831 47.6 100.223 46.192C99.0071 45.8933 98.2391 45.2853 97.9191 44.368C97.7271 43.856 97.6311 43.28 97.6311 42.64C97.6311 42 97.6845 41.3493 97.7911 40.688L99.5831 30.608H105.023L103.519 39.12ZM103.679 50.736C105.066 50.736 105.972 49.4773 106.399 46.96L106.719 45.104C103.754 46.4907 102.271 47.888 102.271 49.296C102.271 49.7227 102.388 50.064 102.623 50.32C102.879 50.5973 103.231 50.736 103.679 50.736ZM141.801 30.608C142.1 31.504 142.249 32.6987 142.249 34.192C142.249 35.664 142.068 37.0827 141.705 38.448C141.342 39.8133 140.788 41.1147 140.041 42.352C139.316 43.568 138.292 44.56 136.969 45.328C135.668 46.0747 134.164 46.448 132.457 46.448C129.897 46.448 128.19 45.7333 127.337 44.304C125.801 45.7333 124.084 46.448 122.185 46.448C119.625 46.448 117.865 45.904 116.905 44.816C116.265 44.0907 115.945 43.0133 115.945 41.584C115.945 40.8373 116.03 40.0053 116.201 39.088L117.705 30.608H123.145L121.641 39.12C121.577 39.44 121.545 39.728 121.545 39.984C121.545 41.2 122.174 41.808 123.433 41.808C124.308 41.808 124.969 41.4347 125.417 40.688C125.865 39.92 126.249 38.5867 126.569 36.688L127.657 30.608H133.097L131.593 39.12C131.529 39.44 131.497 39.728 131.497 39.984C131.497 41.2 132.126 41.808 133.385 41.808C135.604 41.808 136.713 39.4827 136.713 34.832C136.713 33.744 136.628 32.5387 136.457 31.216L136.361 30.608H141.801ZM159.071 41.072C159.071 41.6267 159.349 41.904 159.903 41.904C160.479 41.904 160.959 41.7973 161.343 41.584L161.183 45.2C160.159 46.032 159.007 46.448 157.727 46.448C155.381 46.448 154.079 45.5947 153.823 43.888C152.757 45.5947 151.189 46.448 149.119 46.448C145.621 46.448 143.871 44.944 143.871 41.936C143.871 41.424 143.925 40.8587 144.031 40.24L144.703 36.496C145.045 34.576 145.823 33.0507 147.039 31.92C148.277 30.768 149.877 30.192 151.839 30.192C153.823 30.192 155.167 30.6507 155.871 31.568L156.031 30.608H160.895L159.103 40.688C159.082 40.816 159.071 40.944 159.071 41.072ZM149.599 39.536C149.557 39.728 149.535 39.9947 149.535 40.336C149.535 40.6773 149.695 41.0187 150.015 41.36C150.335 41.68 150.869 41.84 151.615 41.84C152.383 41.84 153.045 41.5413 153.599 40.944L154.559 35.568C154.325 35.0347 153.77 34.768 152.895 34.768C151.253 34.768 150.293 35.5573 150.015 37.136L149.599 39.536ZM179.537 30.608C179.836 31.504 179.985 32.6987 179.985 34.192C179.985 35.664 179.804 37.0827 179.441 38.448C179.079 39.8133 178.524 41.1147 177.777 42.352C177.052 43.568 176.028 44.56 174.705 45.328C173.404 46.0747 171.9 46.448 170.193 46.448C167.527 46.448 165.681 45.904 164.657 44.816C163.975 44.0907 163.633 42.9813 163.633 41.488C163.633 40.784 163.719 39.984 163.889 39.088L165.393 30.608H170.833L169.329 39.12C169.265 39.44 169.233 39.728 169.233 39.984C169.233 41.2 169.863 41.808 171.121 41.808C173.34 41.808 174.449 39.4827 174.449 34.832C174.449 33.744 174.364 32.5387 174.193 31.216L174.097 30.608H179.537ZM188.246 46.448C183.809 46.448 181.59 44.912 181.59 41.84C181.59 41.4133 181.633 40.9547 181.718 40.464L182.39 36.496C182.753 34.448 183.691 32.88 185.206 31.792C186.742 30.6827 188.769 30.128 191.286 30.128C195.574 30.128 197.718 31.7493 197.718 34.992C197.718 35.4613 197.675 35.9733 197.59 36.528L197.206 38.8H187.446L187.318 39.536C187.275 39.792 187.254 40.0267 187.254 40.24C187.254 41.4133 187.947 42 189.334 42C189.846 42 190.283 41.84 190.646 41.52C191.009 41.2 191.222 40.8267 191.286 40.4L196.598 40.464C195.894 44.4533 193.11 46.448 188.246 46.448ZM192.086 36.848C192.171 36.4853 192.214 36.1547 192.214 35.856C192.214 35.536 192.075 35.216 191.798 34.896C191.521 34.576 191.073 34.416 190.454 34.416C189.857 34.416 189.302 34.6187 188.79 35.024C188.299 35.4293 187.958 36.0373 187.766 36.848H192.086ZM215.438 33.936C215.438 34.64 215.225 35.2907 214.798 35.888H209.55C209.721 35.76 209.806 35.5467 209.806 35.248C209.806 34.9493 209.636 34.7147 209.294 34.544C208.953 34.352 208.516 34.256 207.982 34.256C206.382 34.256 205.582 34.7467 205.582 35.728C205.582 36.112 205.881 36.3893 206.478 36.56C207.076 36.7307 207.801 36.8693 208.654 36.976C209.508 37.0827 210.361 37.2427 211.214 37.456C212.068 37.648 212.793 38.0427 213.39 38.64C213.988 39.2373 214.286 40.0373 214.286 41.04C214.286 42.8107 213.572 44.1547 212.142 45.072C210.734 45.9893 208.676 46.448 205.966 46.448C203.257 46.448 201.358 46.0107 200.27 45.136C199.417 44.4533 198.99 43.5147 198.99 42.32C198.99 41.9787 199.022 41.6267 199.086 41.264L204.43 41.2C204.388 41.4987 204.558 41.7653 204.942 42C205.348 42.2133 205.934 42.32 206.702 42.32C207.47 42.32 208.025 42.2453 208.366 42.096C208.708 41.9253 208.878 41.616 208.878 41.168C208.878 40.8693 208.58 40.6667 207.982 40.56C207.385 40.432 206.649 40.3253 205.774 40.24C204.921 40.1547 204.057 40.016 203.182 39.824C202.329 39.632 201.604 39.2267 201.006 38.608C200.409 37.9893 200.11 37.1787 200.11 36.176C200.11 34.2347 200.857 32.7413 202.35 31.696C203.865 30.6507 206.041 30.128 208.878 30.128C213.252 30.128 215.438 31.3973 215.438 33.936Z"
    fill="#707EC2" />
</svg>