<svg width="197" height="36" viewBox="0 0 197 36" fill="none" xmlns="http://www.w3.org/2000/svg">
  <path d="M26 21H0L5 26H21L26 21Z" fill="#707EC2" fill-opacity="0.5" />
  <path d="M20 27H6L11 32H15L20 27Z" fill="#707EC2" fill-opacity="0.5" />
  <path d="M0 15V20H27L32 15H0Z" fill="#707EC2" fill-opacity="0.5" />
  <mask id="path-4-inside-1_247_850" fill="white">
    <path
      d="M0 3C0 1.34315 1.34315 0 3 0H17C18.6569 0 20 1.34315 20 3V17C20 18.6569 18.6569 20 17 20H0V3Z" />
  </mask>
  <path
    d="M0 3C0 1.34315 1.34315 0 3 0H17C18.6569 0 20 1.34315 20 3V17C20 18.6569 18.6569 20 17 20H0V3Z"
    stroke="#707EC2" stroke-width="10" mask="url(#path-4-inside-1_247_850)" />
  <path
    d="M53.4151 21.072C53.4151 21.6267 53.6925 21.904 54.2471 21.904C54.8231 21.904 55.3031 21.7973 55.6871 21.584L55.5271 25.2C54.5031 26.032 53.3511 26.448 52.0711 26.448C49.7245 26.448 48.4231 25.5947 48.1671 23.888C47.1005 25.5947 45.5325 26.448 43.4631 26.448C39.9645 26.448 38.2151 24.944 38.2151 21.936C38.2151 21.424 38.2685 20.8587 38.3751 20.24L39.0471 16.496C39.3885 14.576 40.1671 13.0507 41.3831 11.92C42.6205 10.768 44.3271 10.192 46.5031 10.192C47.8471 10.192 48.9138 10.48 49.7031 11.056L51.3351 1.712H56.8071L53.4471 20.688C53.4258 20.816 53.4151 20.944 53.4151 21.072ZM43.9431 19.536C43.9005 19.728 43.8791 19.9947 43.8791 20.336C43.8791 20.6773 44.0391 21.0187 44.3591 21.36C44.6791 21.68 45.2125 21.84 45.9591 21.84C46.7271 21.84 47.3885 21.5413 47.9431 20.944L48.9031 15.568C48.6685 15.0347 48.1138 14.768 47.2391 14.768C45.5965 14.768 44.6365 15.5573 44.3591 17.136L43.9431 19.536ZM73.1651 21.072C73.1651 21.6267 73.4425 21.904 73.9971 21.904C74.5731 21.904 75.0531 21.7973 75.4371 21.584L75.2771 25.2C74.2531 26.032 73.1011 26.448 71.8211 26.448C69.4745 26.448 68.1731 25.5947 67.9171 23.888C66.8505 25.5947 65.2825 26.448 63.2131 26.448C59.7145 26.448 57.9651 24.944 57.9651 21.936C57.9651 21.424 58.0185 20.8587 58.1251 20.24L58.7971 16.496C59.1385 14.576 59.9171 13.0507 61.1331 11.92C62.3705 10.768 63.9705 10.192 65.9331 10.192C67.9171 10.192 69.2611 10.6507 69.9651 11.568L70.1251 10.608H74.9891L73.1971 20.688C73.1758 20.816 73.1651 20.944 73.1651 21.072ZM63.6931 19.536C63.6505 19.728 63.6291 19.9947 63.6291 20.336C63.6291 20.6773 63.7891 21.0187 64.1091 21.36C64.4291 21.68 64.9625 21.84 65.7091 21.84C66.4771 21.84 67.1385 21.5413 67.6931 20.944L68.6531 15.568C68.4185 15.0347 67.8638 14.768 66.9891 14.768C65.3465 14.768 64.3865 15.5573 64.1091 17.136L63.6931 19.536ZM83.5191 19.12C83.4551 19.504 83.4231 19.888 83.4231 20.272C83.4231 21.296 83.9991 21.808 85.1511 21.808C86.0898 21.808 86.8685 21.4773 87.4871 20.816L89.2791 10.608H94.7191L91.9031 26.512C91.4338 29.2213 90.3565 31.3653 88.6711 32.944C87.0071 34.5227 85.0978 35.312 82.9431 35.312C80.7885 35.312 79.2311 34.9173 78.2711 34.128C77.3325 33.3387 76.8631 32.304 76.8631 31.024C76.8631 29.2107 77.9831 27.6 80.2231 26.192C79.0071 25.8933 78.2391 25.2853 77.9191 24.368C77.7271 23.856 77.6311 23.28 77.6311 22.64C77.6311 22 77.6845 21.3493 77.7911 20.688L79.5831 10.608H85.0231L83.5191 19.12ZM83.6791 30.736C85.0658 30.736 85.9725 29.4773 86.3991 26.96L86.7191 25.104C83.7538 26.4907 82.2711 27.888 82.2711 29.296C82.2711 29.7227 82.3885 30.064 82.6231 30.32C82.8791 30.5973 83.2311 30.736 83.6791 30.736ZM121.801 10.608C122.1 11.504 122.249 12.6987 122.249 14.192C122.249 15.664 122.068 17.0827 121.705 18.448C121.342 19.8133 120.788 21.1147 120.041 22.352C119.316 23.568 118.292 24.56 116.969 25.328C115.668 26.0747 114.164 26.448 112.457 26.448C109.897 26.448 108.19 25.7333 107.337 24.304C105.801 25.7333 104.084 26.448 102.185 26.448C99.6251 26.448 97.8651 25.904 96.9051 24.816C96.2651 24.0907 95.9451 23.0133 95.9451 21.584C95.9451 20.8373 96.0305 20.0053 96.2011 19.088L97.7051 10.608H103.145L101.641 19.12C101.577 19.44 101.545 19.728 101.545 19.984C101.545 21.2 102.174 21.808 103.433 21.808C104.308 21.808 104.969 21.4347 105.417 20.688C105.865 19.92 106.249 18.5867 106.569 16.688L107.657 10.608H113.097L111.593 19.12C111.529 19.44 111.497 19.728 111.497 19.984C111.497 21.2 112.126 21.808 113.385 21.808C115.604 21.808 116.713 19.4827 116.713 14.832C116.713 13.744 116.628 12.5387 116.457 11.216L116.361 10.608H121.801ZM139.071 21.072C139.071 21.6267 139.349 21.904 139.903 21.904C140.479 21.904 140.959 21.7973 141.343 21.584L141.183 25.2C140.159 26.032 139.007 26.448 137.727 26.448C135.381 26.448 134.079 25.5947 133.823 23.888C132.757 25.5947 131.189 26.448 129.119 26.448C125.621 26.448 123.871 24.944 123.871 21.936C123.871 21.424 123.925 20.8587 124.031 20.24L124.703 16.496C125.045 14.576 125.823 13.0507 127.039 11.92C128.277 10.768 129.877 10.192 131.839 10.192C133.823 10.192 135.167 10.6507 135.871 11.568L136.031 10.608H140.895L139.103 20.688C139.082 20.816 139.071 20.944 139.071 21.072ZM129.599 19.536C129.557 19.728 129.535 19.9947 129.535 20.336C129.535 20.6773 129.695 21.0187 130.015 21.36C130.335 21.68 130.869 21.84 131.615 21.84C132.383 21.84 133.045 21.5413 133.599 20.944L134.559 15.568C134.325 15.0347 133.77 14.768 132.895 14.768C131.253 14.768 130.293 15.5573 130.015 17.136L129.599 19.536ZM159.537 10.608C159.836 11.504 159.985 12.6987 159.985 14.192C159.985 15.664 159.804 17.0827 159.441 18.448C159.079 19.8133 158.524 21.1147 157.777 22.352C157.052 23.568 156.028 24.56 154.705 25.328C153.404 26.0747 151.9 26.448 150.193 26.448C147.527 26.448 145.681 25.904 144.657 24.816C143.975 24.0907 143.633 22.9813 143.633 21.488C143.633 20.784 143.719 19.984 143.889 19.088L145.393 10.608H150.833L149.329 19.12C149.265 19.44 149.233 19.728 149.233 19.984C149.233 21.2 149.863 21.808 151.121 21.808C153.34 21.808 154.449 19.4827 154.449 14.832C154.449 13.744 154.364 12.5387 154.193 11.216L154.097 10.608H159.537ZM168.246 26.448C163.809 26.448 161.59 24.912 161.59 21.84C161.59 21.4133 161.633 20.9547 161.718 20.464L162.39 16.496C162.753 14.448 163.691 12.88 165.206 11.792C166.742 10.6827 168.769 10.128 171.286 10.128C175.574 10.128 177.718 11.7493 177.718 14.992C177.718 15.4613 177.675 15.9733 177.59 16.528L177.206 18.8H167.446L167.318 19.536C167.275 19.792 167.254 20.0267 167.254 20.24C167.254 21.4133 167.947 22 169.334 22C169.846 22 170.283 21.84 170.646 21.52C171.009 21.2 171.222 20.8267 171.286 20.4L176.598 20.464C175.894 24.4533 173.11 26.448 168.246 26.448ZM172.086 16.848C172.171 16.4853 172.214 16.1547 172.214 15.856C172.214 15.536 172.075 15.216 171.798 14.896C171.521 14.576 171.073 14.416 170.454 14.416C169.857 14.416 169.302 14.6187 168.79 15.024C168.299 15.4293 167.958 16.0373 167.766 16.848H172.086ZM195.438 13.936C195.438 14.64 195.225 15.2907 194.798 15.888H189.55C189.721 15.76 189.806 15.5467 189.806 15.248C189.806 14.9493 189.636 14.7147 189.294 14.544C188.953 14.352 188.516 14.256 187.982 14.256C186.382 14.256 185.582 14.7467 185.582 15.728C185.582 16.112 185.881 16.3893 186.478 16.56C187.076 16.7307 187.801 16.8693 188.654 16.976C189.508 17.0827 190.361 17.2427 191.214 17.456C192.068 17.648 192.793 18.0427 193.39 18.64C193.988 19.2373 194.286 20.0373 194.286 21.04C194.286 22.8107 193.572 24.1547 192.142 25.072C190.734 25.9893 188.676 26.448 185.966 26.448C183.257 26.448 181.358 26.0107 180.27 25.136C179.417 24.4533 178.99 23.5147 178.99 22.32C178.99 21.9787 179.022 21.6267 179.086 21.264L184.43 21.2C184.388 21.4987 184.558 21.7653 184.942 22C185.348 22.2133 185.934 22.32 186.702 22.32C187.47 22.32 188.025 22.2453 188.366 22.096C188.708 21.9253 188.878 21.616 188.878 21.168C188.878 20.8693 188.58 20.6667 187.982 20.56C187.385 20.432 186.649 20.3253 185.774 20.24C184.921 20.1547 184.057 20.016 183.182 19.824C182.329 19.632 181.604 19.2267 181.006 18.608C180.409 17.9893 180.11 17.1787 180.11 16.176C180.11 14.2347 180.857 12.7413 182.35 11.696C183.865 10.6507 186.041 10.128 188.878 10.128C193.252 10.128 195.438 11.3973 195.438 13.936Z"
    fill="#707EC2" />
</svg>