<svg
  width="32"
  height="32"
  viewBox="0 0 32 32"
  fill="none"
  xmlns="http://www.w3.org/2000/svg">
  <path
    d="M26 21H0L5 26H21L26 21Z"
    fill="#707EC2"
    fill-opacity="0.5" />
  <path
    d="M20 27H6L11 32H15L20 27Z"
    fill="#707EC2"
    fill-opacity="0.5" />
  <path
    d="M0 15V20H27L32 15H0Z"
    fill="#707EC2"
    fill-opacity="0.5" />
  <mask
    id="path-4-inside-1_138_2106"
    fill="white">
    <path
      d="M0 3C0 1.34315 1.34315 0 3 0H17C18.6569 0 20 1.34315 20 3V17C20 18.6569 18.6569 20 17 20H0V3Z" />
  </mask>
  <path
    d="M0 3C0 1.34315 1.34315 0 3 0H17C18.6569 0 20 1.34315 20 3V17C20 18.6569 18.6569 20 17 20H0V3Z"
    stroke="#707EC2" stroke-width="10" mask="url(#path-4-inside-1_138_2106)" />
</svg>